<?xml version="1.0" encoding="UTF-8" standalone="no"?>
<svg
   version="1.2"
   viewBox="0 0 401 171"
   width="401"
   height="171"
   id="svg695"
   xmlns="http://www.w3.org/2000/svg"
   xmlns:svg="http://www.w3.org/2000/svg">
  <defs
     id="defs699" />
  <style
     id="style681">.a{fill:#fff}.b{paint-order:stroke fill markers;stroke:#000;stroke-width: NaN;stroke-linejoin: round;}</style>
  <path
     d="m 15.3,22.4 h 79.8 c 8.5,0 15.3,6.8 15.3,15.3 v 79.8 c 0,8.5 -6.8,15.3 -15.3,15.3 H 15.3 C 6.8,132.8 0,126 0,117.5 V 37.7 C 0,29.2 6.8,22.4 15.3,22.4 Z"
     id="path683" />
  <path
     class="a"
     d="M 57.3,117.9 V 104.3 L 81.9,90.8 57.3,77.6 V 64 l 35.2,21.2 v 11.5 z"
     id="path685" />
  <path
     class="a"
     d="m 53.5,77.6 -24.2,13.2 24.2,13.5 v 13.6 L 18.3,96.7 V 85.2 L 53.5,64 Z"
     id="path687" />
  <path
     class="a"
     d="m 75.6,50.9 v 2.9 c -1.3,0 -2.6,0.5 -3.9,0.9 -0.8,0.4 -1.2,0.8 -1.7,1.7 -0.4,1.2 -0.4,2.5 -0.4,3.8 0,0.8 0,2.1 -0.4,3.4 -0.4,0.8 -0.9,1.7 -1.7,2.1 -1.3,0.9 -2.1,1.3 -3.4,1.3 -1.7,0.4 -3.8,0.4 -5.5,0.4 h -1.3 v -3.8 c 1.3,0 2.5,-0.4 3.8,-0.4 0.4,0 0.9,0 1.3,-0.5 0.4,-0.4 0.4,-1.2 0.4,-1.7 0,-0.4 0,-1.7 0,-3.4 0.4,-0.8 0.4,-1.6 0.9,-2.5 0.4,-0.4 0.8,-1.3 1.7,-1.7 q 1.2,-0.6 2.5,-1.3 -1.3,-0.6 -2.5,-1.2 c -0.5,-0.5 -0.9,-1.3 -1.3,-1.7 -0.4,-0.9 -0.9,-1.7 -0.9,-2.6 -0.4,-1.7 -0.4,-3 -0.4,-3.8 0,-0.4 0,-0.9 -0.4,-1.3 -0.4,0 -0.9,-0.4 -1.3,-0.4 q -1.9,0 -3.8,0 V 37.3 H 59 c 1.7,0 3.4,0 5.1,0.4 q 1.9,0.6 3.8,1.3 c 0.9,0.4 1.3,1.2 1.7,2.1 0.4,1.3 0.4,3 0.4,4.2 q 0,1.3 0,2.6 c 0,0.8 0.5,1.3 0.9,1.7 0.4,0.4 1.3,0.8 1.7,0.8 1.3,0.5 2.1,0.5 3,0.5 z"
     id="path689" />
  <path
     class="a"
     d="m 38.2,50.4 c 0.4,0 1.3,-0.4 1.7,-0.8 0.4,-0.4 0.8,-0.9 0.8,-1.7 q 0,-1.3 0,-2.6 c 0,-1.2 0,-2.9 0.5,-4.2 0.4,-0.9 0.8,-1.7 1.7,-2.1 q 1.9,-0.7 3.8,-1.3 c 1.7,-0.4 3.4,-0.4 5.1,-0.4 h 1.7 v 3.8 q -1.9,0 -3.8,0 c -0.5,0 -0.9,0.4 -1.3,0.4 -0.4,0.4 -0.4,0.9 -0.4,1.3 0,0.8 0,2.1 -0.5,3.8 0,0.9 -0.4,1.7 -0.8,2.6 -0.4,0.4 -0.9,1.2 -1.3,1.7 q -1.3,0.6 -2.5,1.2 1.2,0.7 2.5,1.3 c 0.9,0.4 1.3,1.3 1.7,1.7 0.4,0.9 0.4,1.7 0.9,2.5 0,1.7 0,3 0,3.4 0,0.5 0,1.3 0.4,1.7 0.4,0.5 0.8,0.5 1.3,0.5 1.2,0 2.5,0.4 3.8,0.4 v 3.8 h -1.3 c -1.7,0 -3.8,0 -5.5,-0.4 -1.3,0 -2.1,-0.4 -3.4,-1.3 -0.9,-0.4 -1.3,-1.3 -1.7,-2.1 -0.4,-1.3 -0.4,-2.6 -0.4,-3.4 0,-1.3 0,-2.6 -0.5,-3.8 -0.4,-0.9 -0.8,-1.3 -1.7,-1.7 -1.2,-0.4 -2.5,-0.9 -3.8,-0.9 v -2.9 c 0.9,0 1.7,0 3,-0.5 z"
     id="path691" />
  <path
     class="b"
     d="M 151.9,123 H 141.5 V 58.2 q 0,-9.4 5.3,-14.5 5.4,-5 14.6,-5 1.8,0 3.5,0.2 1.8,0.2 3.5,0.7 l -0.5,8 q -1.2,-0.2 -2.7,-0.3 -1.4,-0.1 -2.9,-0.1 -4.9,0 -7.6,2.9 -2.8,2.8 -2.8,8.1 z M 164.7,64.4 V 72 h -32.6 v -7.6 z m 21.7,9.2 V 123 H 176 V 64.4 h 10.1 z m 18.8,-9.5 v 9.2 q -1.4,-0.2 -2.5,-0.3 -1.1,-0.1 -2.6,-0.1 -4.7,0 -8,1.9 -3.2,1.9 -5,5.3 -1.8,3.3 -2.2,7.5 l -3,1.7 q 0,-7.1 2,-13 1.9,-5.9 6,-9.4 4.2,-3.6 10.7,-3.6 1.1,0 2.5,0.3 1.5,0.2 2.1,0.5 z m 4.8,30.2 v -1.2 q 0,-8.5 3.3,-15.2 3.4,-6.7 9.5,-10.6 6.1,-4 14.5,-4 8.5,0 14.7,4 6.1,3.9 9.4,10.6 3.4,6.7 3.4,15.2 v 1.2 q 0,8.5 -3.4,15.3 -3.3,6.7 -9.4,10.6 -6.1,3.9 -14.6,3.9 -8.4,0 -14.6,-3.9 -6.1,-3.9 -9.5,-10.6 -3.3,-6.8 -3.3,-15.3 z m 10.4,-1.2 v 1.2 q 0,5.8 1.9,10.8 1.9,4.9 5.6,7.9 3.8,2.9 9.5,2.9 5.7,0 9.4,-2.9 3.8,-3 5.7,-7.9 1.9,-5 1.9,-10.8 v -1.2 q 0,-5.8 -1.9,-10.7 -1.9,-4.9 -5.7,-7.9 -3.8,-3.1 -9.5,-3.1 -5.6,0 -9.4,3.1 -3.8,3 -5.7,7.9 -1.8,4.9 -1.8,10.7 z M 288,76.9 V 123 H 277.6 V 64.4 h 9.9 z m -2.5,14.5 -4.3,-0.1 q 0.1,-8.1 3.2,-14.3 3,-6.4 8.5,-10 5.5,-3.7 12.8,-3.7 5.9,0 10.2,2.2 4.3,2.1 6.7,6.7 2.3,4.7 2.3,12.4 V 123 H 314.6 V 84.5 q 0,-4.6 -1.4,-7.4 -1.4,-2.8 -4,-4.1 -2.7,-1.3 -6.6,-1.3 -3.8,0 -6.9,1.6 -3.2,1.5 -5.4,4.3 -2.3,2.8 -3.5,6.3 -1.3,3.6 -1.3,7.5 z m 80.2,-27 V 72 H 333.2 V 64.4 Z M 344.1,50.2 h 10.3 v 58.3 q 0,3 1,4.5 0.9,1.5 2.4,2 1.5,0.5 3.3,0.5 1.2,0 2.6,-0.2 1.5,-0.2 2.1,-0.4 l 0.1,8.1 q -1.2,0.4 -3.2,0.7 -2,0.4 -4.8,0.4 -3.7,0 -6.9,-1.5 -3.2,-1.5 -5.1,-4.9 -1.8,-3.4 -1.8,-9.3 z"
     id="path693" />
</svg>
